<svg xmlns="http://www.w3.org/2000/svg" width="417.6" height="756" viewBox="0 0 417.6 756"><path fill="#fff" d="M16.87 406.5c.81-9.658 5.554-15.04 14.788-15.998 9.104-.945 18.28-1.982 27.395-1.813 22.925.423 43.66 7.82 61.343 22.453 5.705 4.715 9.878 11.27 14.754 16.984 12.072 14.15 23.907 28.516 36.308 42.38 7.132 7.98 12.796 17.478 22.412 23.062 1.06.615 2.167 1.13 4.102 2.136.284-2.58.903-4.43.62-6.134-3.494-20.912-7.11-41.813-10.704-62.716-1.662-9.677-3.108-19.257-.524-29.126 1.034-3.952.424-8.44.025-12.64-1.957-20.765-4.09-41.51-4.427-62.5 1.578 10.297 3.157 20.597 4.73 30.892.42-.058.838-.118 1.26-.18.754-4.14 1.5-8.278 2.254-12.42.23-1.284 0-3.183.765-3.767 7.677-5.84 4.646-13.782 3.457-20.69-1.87-10.82-.71-21.434-.405-32.188.315-11.076-.608-22.192-1.08-33.286-1.532-35.552-3.356-71.097-4.574-106.66-.99-28.74-1.493-57.5-1.703-86.256-.053-7.06 1.704-14.166 2.963-21.193 1.376-7.67 3.146-15.27 4.936-23.813 1.46.56 3.014 1.15 5.102 1.943 1.37-2.78 2.83-5.74 4.29-8.707.486.053.976.1 1.457.153.44 3.248.87 6.496 1.31 9.745 5.906-11.545 18.083-9.91 27.25-13.766 4.933-2.074 16.978 5.013 19.358 10.063 3.41 7.25 4.76 14.91 4.39 22.89-.624 13.392-1.835 26.788-1.776 40.177.084 20.243.512 40.516 1.756 60.718 2.29 37.214 5.183 74.39 8.027 111.568 1.098 14.347 2.664 28.66 4.19 42.968 2.705 25.347 5.437 50.69 8.37 76.01 2.7 23.32 5.133 46.687 8.71 69.876 2.63 17.036 7.313 33.743 10.36 50.727 2.308 12.863 3.396 25.947 5.19 38.91 1.165 8.42 2.507 16.82 4 25.19.363 2.036 1.647 3.9 3.216 7.426 2.2-3.828 3.797-6.168 4.96-8.704 8.075-17.514 15.763-35.217 24.186-52.573 5.407-11.148 11.84-21.8 17.847-32.658.464-.846 1.345-2.31 1.755-2.216 8.598 1.904 9.752-6.376 15.026-11.41 3.352 4.703 6.697 8.926 9.5 13.48 2.09 3.403 4.113 4.19 8.025 2.775 4.714-1.71 9.815-2.35 14.6-3.41 9.713 10.86 5.09 22.34.745 35.41 3.472-2.314 5.17-3.44 7.464-4.974 3.065 7.288-1.632 12.597-3.62 18.362-2.08 6.03-4.295 12.03-6.454 18.04.583.277 1.163.556 1.74.84 2.15-3.01 4.29-6.02 6.596-9.262 1.594 13.645-4.948 24.824-8.935 36.886-4.74 14.325-12.855 27.864-12.447 43.702.023.89-.268 2.442-.745 2.59-6.292 1.92-6.09 7.923-7.513 12.484-9.27 29.633-18.36 59.32-27.105 89.11-2.01 6.846-2.25 14.19-3.65 21.234-1.07 5.422-2.63 10.75-4.08 16.094-1.176 4.337-4.44 6.502-8.604 6.96-11.94 1.305-23.896 2.86-35.88 3.3-5.964.225-12.024-1.645-18-2.81-7.33-1.425-14.706-2.788-21.874-4.84-2.9-.834-5.867-2.91-7.855-5.238-11.665-13.624-22.982-27.552-34.57-41.248-8.82-10.43-17.85-20.69-26.86-30.96-1.048-1.193-2.663-1.854-3.864-2.936-7.06-6.367-12.485-13.76-17.395-22.06-4.982-8.42-12.858-15.12-19.396-22.505-1.6-3.64-2.72-7.938-5.128-11.337-5.075-7.172-11.1-13.677-16.198-20.84-3.932-5.536-7.01-11.672-10.52-17.52-2.17-3.625-4.225-7.347-6.705-10.76-4.84-6.677-9.276-13.313-9.613-22.09-.114-2.985-2.434-5.938-3.93-8.8-8.445-16.19-16.95-32.347-25.414-48.518-4.688-8.946-9.438-17.872-13.95-26.91-1.446-2.9-2.028-6.222-3.334-9.21-3.7-8.495-7.966-16.13-17.914-19.35-8.04-2.603-15.68-6.533-19.34-15.354-.894-2.136-3.64-3.533-5.446-5.19zm56.76 53.85c.996-8.825-3.67-15.393-12.994-19.844 2.637 7.694 6.77 13.294 12.994 19.844zm-64-55.297l-7.914-3.94c4.662-1.178 4.662-1.178 7.914 3.94zm180.663-93.115c-.382-1.77-.765-3.535-1.144-5.306.472-.09.943-.175 1.414-.264.263 1.785.53 3.572.798 5.357-.356.072-.713.14-1.07.21v.003z"/></svg>