<svg xmlns="http://www.w3.org/2000/svg" width="792" height="324" viewBox="0 0 792 324"><path fill="#fff" d="M160.668 208.11c2.247 0 4.47.284 6.6-.048 10.59-1.654 21.14-3.547 31.73-5.195 5.487-.855 11.026-1.344 16.532-2.07 6.94-.918 13.867-1.908 20.798-2.87 5.1-.704 10.2-1.415 15.297-2.124 6.402-.885 12.79-1.867 19.208-2.62 5.373-.63 10.78-.974 16.167-1.476.48-.044.937-.322 1.578-.557-.922-3.614-3.12-6.203-5.464-8.69-3.46-3.67-5.61-7.942-6.21-13.41.94.17 1.702.308 2.785.498.073-1.147.146-2.258.236-3.603l-3.294-.57c-.15-2.557-.31-5.234-.466-7.91.292-.058.583-.11.875-.168 1.3 1.58.75 3.9 2.105 6.467.617-3.467 1.214-6.113 1.54-8.792 1.292-10.613 4.812-20.53 9.04-30.28 4.48-10.328 10.83-19.35 18.735-27.24 4.272-4.264 9.61-6.964 15.71-7.757 2.79-.363 5.356-1.115 7.57-2.864-.613-1.844-2.013-1.447-3.05-1.27-2.7.468-4.553-1.132-6.47-2.47-1.257-.876-1.147-2.14.233-2.85 1.862-.956 3.84-1.69 6.005-2.62-.15-.553-.362-1.34-.653-2.427 5.954-.19 11.632-.616 17.297-.498 11.926.25 22.425 4.88 32.056 11.513 4.39 3.023 7.272 7.62 10.48 11.827 3.954 5.182 7.532 10.544 9.567 16.834 1.932 5.967 2.895 12.02 2.218 18.287-.577 5.356-.906 10.763-1.896 16.044-.696 3.72-1.917 7.464-3.614 10.84-2.426 4.82-5.28 9.474-8.35 13.92-5.807 8.416-12.506 16.07-20.553 22.478-2.96 2.357-5.808 4.857-9.05 7.584 1.14.154 1.83.246 3.387.453-11.42 6.686-22.74 10.924-35.52 11.07 1.89.705 3.785 1.41 5.86 2.18-.98 1.653-2.24 1.362-3.28.976-3.962-1.47-7.988-2.838-11.767-4.695-2.522-1.24-4.82-1.7-7.598-1.19-6.24 1.148-12.515 2.56-18.817 2.813-6.808.27-13.412 1.447-19.987 2.84-3.764.798-7.488 1.735-11.305 2.343-4.682.744-9.302 1.88-14.18 2.895l.4 1.915c-.217.135-.412.354-.64.39-6.505 1.097-13.017 2.172-19.523 3.26-2.216.367-4.417.917-6.647 1.093-2.127.168-4.048.275-5.85 1.838-.874.76-2.703.4-4.093.586-3.38.45-6.784.776-10.11 1.48-.936.2-1.494 1.86-2.47 2.28-1.803.773-3.76 1.28-5.697 1.63-5.59 1.02-11.12 2.03-16.517 4.046-4.29 1.604-8.99 2.13-13.538 2.984-3.045.576-4.597 2.203-4.876 5.314-.283 3.164-.824 6.303-1.26 9.45-.164 1.18-.286 2.37-.536 3.535-.744 3.457-1.056 3.714-4.405 4.058-1.637 6.676-2.89 13.433-4.99 19.914-2.39 7.365-3.963 15.243-8.674 21.54-3.542 4.734-7.68 9.526-14.816 8.594-.4-.054-.858.326-1.285.51-.657.276-1.517.98-1.93.774-2.11-1.045-4.143-.377-6.227-.104-4.088.536-10.054-.16-13.868-1.61 1.54-.292 2.84-.542 4.14-.79l.06-.605c-.666-.237-1.32-.52-1.998-.71-5.35-1.497-10.708-2.97-16.064-4.457-.638-.176-1.258-.54-1.897-.572-6.79-.32-12.214-3.895-17.716-7.326-1.907-1.19-3.96-2.146-5.883-3.314-1.345-.818-2.802-1.62-3.835-2.764-3.355-3.71-7.63-6.098-11.802-8.656-2.24-1.373-4.477-2.764-6.626-4.27-.726-.51-1.16-1.42-1.753-2.128-2.03-2.425-3.997-4.91-6.146-7.226-.66-.707-1.81-1.27-2.77-1.33-2.323-.14-3.934-1.375-5.51-2.84-3.77-3.506-7.57-6.98-11.328-10.496-.348-.326-.482-.877-.81-1.506 1.433-.89 2.74-1.705 4.148-2.578-.094-.853-.144-1.625-.27-2.387-.248-1.455.413-2.172 1.766-2.604 4.14-1.33 8.274-2.677 12.36-4.15 1.605-.58 3.097-1.493 4.613-2.304 5.345-2.867 10.555-5.9 16.664-7.155 3.556-.728 6.865-2.594 10.333-3.81 1.45-.51 3.02-.665 4.538-.97.64-.127 1.376-.053 1.91-.353 3.73-2.095 7.707-3.295 11.986-3.5.387-.02.844-.078 1.14-.296 6.005-4.388 13.27-4.782 20.155-6.32 6.7-1.49 13.52-2.493 20.168-4.183 5.574-1.417 5.392-2.98 5.137-7.566-.205-3.726.433-7.715 1.665-11.25 1.55-4.448 1.38-9.108 2.615-13.543.67-2.41 1.385-4.81 1.97-7.24.934-3.88 2.52-7.567 2.905-11.622.235-2.463 1.003-4.97 2.032-7.225.8-1.75 1.568-3.185.887-5.208-.23-.677.655-1.866 1.25-2.656 1.255-1.657 2.12-3.207 1.163-5.43-.955-2.213.702-4.06 1.51-5.947 1.485-3.48.853-4.7-2.97-4.43-5.94.422-11.86 1.17-17.79 1.74-7.64.74-15.268 1.66-22.925 2.106-9.896.58-19.814.756-29.72 1.14-1.45.056-2.896.443-4.342.425-1.688-.02-3.596.133-5.02-.576-4.564-2.28-9.146-4.543-11.057-10.03-.93-2.67-3.158-4.858-4.375-7.463-1.893-4.05-3.155-8.314-2.896-12.91.053-.962-.526-1.945-.67-2.94-.085-.574-.093-1.43.246-1.72.32-.277 1.29-.19 1.696.115.605.455.967 1.237 1.552 2.042 4.96-3.667 10.192-1.92 15.224-2.027 3.68-.078 7.37.122 11.05-.004 5.82-.197 11.645-.422 17.444-.91 3.273-.278 6.5-1.106 9.963-1.723.428-2.505 2.027-3.302 4.45-3.57 3.923-.433 7.772-1.486 11.685-2.036 7.992-1.125 15.938-2.264 23.636-4.952 4.853-1.695 10.01-2.518 15.03-3.725.26-.063.523-.093.786-.132 5.82-.874 9.113-4.252 10.18-10.018.223-1.196 1.045-2.29 1.642-3.403.87-1.624 1.82-3.203 2.672-4.836 1.893-3.626 3.553-7.39 5.656-10.892 4.625-7.7 9.23-15.432 14.285-22.85 5.005-7.35 10.748-14.122 19.194-17.88 5.026-5.11 11.62-5.662 18.206-6.338 3.707-.38 4.7-.18 8.135.825 2.728.796 5.618 1.04 9.3 1.68-2.674-4.73-7.07-4.187-10.23-5.965 4.89-.178 9.204 1.552 13.386 3.823 1.332.724 2.4 2.756 4.412 1.064.156-.132 1.27.464 1.54.946 2.086 3.71 5.816 5.38 9.25 7.235 8.57 4.63 14.85 11.32 19.278 19.912 1.085 2.1 2.594 3.98 3.787 6.03 3.08 5.294 5.5 10.846 6.318 16.992.42 3.15.327 5.954-2.885 7.91-1.402.854-2.282 2.54-3.454 3.796-6.103 6.554-13.445 11.476-21.23 15.74-3.81 2.086-7.886 3.69-11.82 5.555-4.774 2.264-9.533 4.56-14.277 6.883-.424.208-1.055.8-.99 1.08.552 2.405-1.53 2.645-2.792 3.136-5.784 2.263-11.66 4.292-17.485 6.46-6.42 2.392-12.825 4.823-19.218 7.282-1.675.644-2.845 1.786-3.388 3.622-2.475 8.37-5.008 16.724-7.553 25.072-1.08 3.538-2.333 7.02-3.315 10.585-.517 1.88-1.665 3.137-3.33 3.63-2.135.638-2.893 2.106-3.347 3.996-2.293 9.516-4.583 19.03-6.893 28.543-.814 3.314-1.872 6.598-1.27 10.197l.006-.01zm180.718-84.73c-.69 1.07-1.034 2.295-1.78 2.633-3.91 1.77-6.166 5.266-9.025 8.145-3.993 4.02-7.835 8.13-10.552 13.173-3.45 6.4-7.062 12.737-8.835 19.863-1.244 4.992-2.46 10.007-3.313 15.072-.596 3.52.29 4.368 3.833 5.156 6.476 1.44 12.743.043 18.695-2.14 15.713-5.76 27.887-16.465 38.598-28.953 2.73-3.184 5.234-6.664 7.24-10.338 3.548-6.504 6.344-13.384 7.962-20.65.765-3.434 1.395-6.934 1.642-10.436.334-4.765-2.077-8.228-6.648-10.095-2.307-.943-4.71-1.647-7.062-2.484-.334-.12-.618-.385-1.397-.884l2.09-.56c-1.985-2.618-3.982-3.524-6.28-3.873-2.09-.32-4.297-.28-6.265-.95-6.925-2.36-13.868-.6-20.8-.36-1.338.045-2.5.72-2.768 2.526.712.256 1.408.333 1.854.705 1.166.973 3.265 2.245 3.128 3.095-.422 2.604.855 4.824.87 7.245.015 2.78.18 5.482 3.53 7.63h-6.21c.617 1.243 1.05 2.107 1.565 3.143l-3.532 1.866 3.46 1.47zM52.47 277.954c.197.712.188 1.192.42 1.45 5.856 6.412 12.575 11.646 20.583 15.16 5.423 2.383 11.072 3.146 16.96 3.252 7.434.134 12.42-2.98 14.86-9.827.438-1.23 1.22-2.333 1.817-3.506.47-.928 1.087-1.83 1.313-2.82 1.24-5.368 2.17-10.78 4.445-15.903.947-2.134.76-4.836.762-7.28 0-.843-.993-1.68-1.72-2.813-3.09 2.384-6.315 2.604-9.688 2.18-.896-.11-1.84.15-2.762.23-5.04.438-9.162 3.197-13.55 5.307-1.89.91-3.832 1.773-5.84 2.355-2.516.728-5.15 1.05-7.68 1.743-1.895.52-3.65 1.684-5.557 1.99-6.008.98-9.815 5.342-14.364 8.48zM250.202 49.497c-.135-.384-.272-.768-.41-1.152-2.305 0-4.64-.225-6.914.042-7.65.895-13.293 5.504-18.562 10.583-2.51 2.42-4.652 5.22-6.958 7.845 1.552 1.51 2.598.61 3.613.167 1.798-.784 3.605-1.57 5.318-2.518 3.215-1.775 6.393-3.628 9.54-5.523 2.474-1.485 4.898-3.056 7.31-4.644 2.38-1.564 4.712-3.195 7.064-4.8zm76.8 73.49c2.28-.445 4.355-1.27 5.98-3.96-3.028.427-4.912 1.49-5.98 3.96zM195.497 32.79c-1.66 1.434-3.32 2.87-5.44 4.7 2.944.05 3.273-.218 5.44-4.7zm109.258 177.587l.185 1.077 4.082-.548c-1.836-1.75-3.063-1.746-4.267-.53zM105.12 316.433c-.02-.298-.037-.596-.056-.894l-2.1.257.04.635h2.116zM281.866 178.07l.808-.428-1.375-2.547-.79.42c.452.85.906 1.704 1.356 2.555zM331.312 127c-.213-.26-.426-.52-.64-.784-.516.45-1.03.897-1.544 1.347l.43.562c.583-.376 1.17-.75 1.754-1.125zm-29.006 84.337c-.102-.308-.15-.69-.245-.7-.34-.04-.695.045-1.046.082.083.28.13.777.256.8.322.05.68-.106 1.036-.183zm481.456-92.97c-1.324 4.746-4.045 7.79-6.502 11.2-5.36 7.442-13.508 11.22-20.063 17.016-1.898 1.678-3.29 2.992-2.02 5.595.13.27-.123.726-.203 1.128-3.534-2.28-3.795-2.294-6.132 1.152-1.662 2.452-3.092 5.062-4.744 7.792 3.588 1.045 4.42-3.635 8.186-2.775-1.288 1.13-2.082 2.284-3.163 2.7-4.564 1.76-7.643 5.597-11.69 8.078-6.75 4.133-13.33 8.546-20.03 12.767-4.908 3.09-9.858 6.117-14.858 9.057-1.92 1.128-4.01 1.98-6.06 2.875-4.53 1.98-9.013 3.984-13.16 6.77-2.7 1.814-5.873 2.98-8.947 4.138-.976.37-2.305-.28-3.48-.346-1.273-.07-3.378-1.244-2.687 1.754-2.066 1.133-4.047 3.01-6.21 3.252-6.185.694-11.806 4.082-18.188 3.61-.416-.03-.866.42-1.954.99 1.44.32 2.2.493 3.004.676-.254.22-.432.51-.61.51-7.235.016-14.335 2.327-21.66 1.177-6.14-.963-12.322-1.58-18.17-3.946-3.05-1.233-6.363-1.858-9.34-3.23-5.648-2.6-9.892-7.05-13.897-11.65-3.556-4.09-7.144-8.205-10.237-12.646-8.466-12.144-12.767-25.29-10.02-40.416 1.93-10.653 5.674-20.627 9.454-30.646.235-.62.444-1.25.71-1.857.807-1.83.143-2.966-1.562-3.847-2.33-1.207-4.977-2.17-6.79-3.948-5.92-5.802-12.078-11.446-15.582-19.277-.883-1.968-2.697-3.52-4.256-5.482-.94.636-1.814.99-2.35 1.627-4.84 5.774-9.56 11.645-14.43 17.392-2.97 3.503-6.227 6.765-9.198 10.27-2.558 3.02-5.11 6.083-7.286 9.38-5.6 8.49-11.04 17.083-16.444 25.698-5.82 9.272-11.43 18.678-17.31 27.91-6.18 9.704-12.458 19.353-18.91 28.878-4.654 6.874-9.93 13.333-14.438 20.296-4.146 6.397-8.27 12.904-9.89 20.593-.398 1.882-1.045 3.947-2.23 5.384-3.025 3.646-6.3 7.106-9.714 10.392-2.125 2.045-4.07 2.062-6.474.42-2.605-1.78-5.05-3.803-7.558-5.73-3.102-2.385-6.234-4.732-9.264-7.207-.766-.625-1.69-1.67-1.687-2.516.018-3.873-1.443-7.914 1.194-11.577.563-.78.495-2.02.69-3.057.46-2.39.165-5.017 2.702-6.66.578-.375.645-1.676.78-2.574 1.246-8.242 2.413-16.498 3.686-24.734 1.396-9.022 2.888-18.03 4.32-27.047 1.476-9.276 2.964-18.548 4.378-27.832 1.14-7.46 2.05-14.956 3.28-22.4 1.835-11.087 4.014-22.12 5.732-33.223.723-4.67 1.2-9.44-.084-14.2-.71-2.63 1.182-4.532 2.81-6.216 1.542-1.6 3.475-1.413 5.517-.572 4.15 1.705 7.737 4.008 9.98 8.035.13.23.263.488.46.645 4.795 3.815 5.357 9.46 6.445 14.877.103.517.05 1.145.33 1.537 3.115 4.375 2.477 9.94 4.68 14.61 1.04 2.2.142 4.384-.515 6.564-.867 2.893-1.51 5.85-2.298 8.77-.893 3.315-1.62 6.7-2.85 9.888-.62 1.612-2.187 2.86-3.318 4.277-.313.396-.944.88-.876 1.194.86 3.737-1.813 6.484-2.597 9.74-1.48 6.16-2.895 12.35-3.97 18.593-1.527 8.87-2.73 17.797-4.052 26.7-.16 1.085-.178 2.19-.266 3.283l.795.354c.8-.772 1.734-1.442 2.378-2.327 5.45-7.49 10.896-14.98 16.243-22.54 6.18-8.74 12.315-17.51 18.36-26.345 4.703-6.873 9.207-13.88 13.86-20.785 6.208-9.21 12.387-18.44 18.753-27.537 3.56-5.084 7.464-9.923 11.226-14.863 5.52-7.25 11.018-14.52 16.598-21.727 1.7-2.193 3.498-4.35 5.51-6.25 3.148-2.977 5.57-6.484 6.904-10.48 1.006-3.006 2.007-5.95 3.57-8.7.456-.802.92-1.61 1.468-2.35 2.9-3.91 6.57-5.666 11.642-5.208 5.95.54 10.853 2.86 15.045 6.918.75.724 1.567 1.635 1.794 2.593 1.163 4.93 5.2 8.506 6.05 13.647.812 4.925 2.316 9.753 1.406 14.805-.203 1.11-.785 2.26-1.49 3.16-2.53 3.227-5.874 5.346-9.86 6.228-1.722.38-2.83 1.2-3.753 2.6-.646.977-1.495 1.824-2.283 2.7-2.26 2.51-1.94 5.21.976 6.953 1.11.666 2.413 1.273 3.673 1.38 3.553.297 7.126.404 10.69.427 3.5.024 5.777-1.8 7.642-4.77 5.628-8.978 11.708-17.67 18.892-25.48 7.513-8.168 14.996-16.416 24.965-22.41.23.59.478 1.208.81 2.055 1.346-.416 2.505-.904 1.663-2.675-.668-1.408-.045-2.3.993-3.047 3.737-2.678 7.495-5.33 11.26-7.975 2.153-1.514 4.247-3.144 6.523-4.446 2.74-1.567 5.562-3.062 8.5-4.192 5.78-2.22 11.368-5.155 17.796-5.25.9-.012 1.826-.335 2.687-.653 2.464-.91 4.876-1.005 7.348.024.963.4 2.058.76 3.074.718 4.554-.187 7.66 2.324 9.687 5.843 4.233 7.35 6.518 15.316 5.822 23.924-.073.905-.273 1.87-.683 2.67-3.452 6.747-7.595 12.933-13.648 17.73-3.616 2.866-6.706 6.417-10.416 9.14-5.853 4.29-11.85 8.446-18.11 12.105-7.642 4.463-15.62 8.345-23.44 12.497-.935.496-1.823 1.08-2.698 1.675-5.28 3.608-11.298 5.698-17.07 8.29-4.2 1.886-8.622 3.34-12.663 5.517-1.963 1.057-3.27 3.33-5.22 5.423-4.73-1.108-6.34 3.343-7.985 6.554-4.34 8.454-8.384 17.1-11.87 25.937-2.252 5.71-3.316 11.89-4.192 18.08 1.445-3.973 2.894-7.944 4.337-11.916l.636.076c-.087.77-.12 1.55-.273 2.306-.183.906-.506 1.785-.702 2.69-1.058 4.908-2.258 9.797-3.08 14.746-.45 2.716-.432 5.55-.268 8.312.088 1.508.642 3.164 1.48 4.416 2.236 3.34 5.17 5.834 9.02 7.438 5.89 2.45 11.833 4.422 18.2 5.233 10.517 1.34 20.87.666 31.094-1.998 5.884-1.53 11.794-3.047 17.528-5.04 5.103-1.775 10.026-4.09 14.94-6.366 7.186-3.322 14.29-6.822 21.43-10.253.36-.17.716-.35 1.054-.555 7.878-4.81 15.805-9.534 23.61-14.458 7.247-4.574 14.447-9.236 21.52-14.08 8.713-5.964 17.572-11.788 25.786-18.395 4.903-3.946 10.186-4.98 16.348-5.67l.006-.003zm-358.232 83.08c4.163-3.444 5.556-13.09 3.084-20.113-1.65 6.907-2.9 13.408-3.084 20.11v.003zm296.678-26.354c.15.26.302.52.45.78 1.85-1.544 4.467-1.752 6.048-3.755l-.438-.757c-2.02 1.247-4.04 2.492-6.06 3.733zm-55.3-125.184c-.714-.32-.956-.524-1.095-.47-.214.085-.446.328-.496.543-.028.135.31.508.41.483.346-.084.662-.298 1.18-.557zm13.58 151.23c-.162.132-.326.26-.487.388.178.117.34.255.53.332.06.024.277-.162.27-.183-.084-.187-.198-.36-.312-.536zm33.633-21.078c.168.153.34.44.5.43.18-.012.34-.28.51-.443-.164-.155-.336-.444-.493-.434-.18.012-.343.282-.516.446zm30.637 41.728c-2.7-.515-5.394-1.07-8.104-1.524-2.32-.39-4.673-.59-6.987-1.01-1.098-.203-2.185-.63-3.188-1.133-.92-.462-1.7-1.196-2.582-1.744-2.426-1.505-3.407-3.466-2.266-6.015 1.504-3.352 2.915-6.995 5.32-9.646 6.07-6.68 15.354-7.528 21.88-1.603 3.135 2.85 4 7.035 4.898 11.02.344 1.522.21 3.157.293 4.737.244 4.472-1.532 6.408-6.023 6.542-1.055.03-2.11.003-3.166.003l-.072.37zm-154.99-82.946l3.146-6.888.764.394c-1.032 2.305-.932 5.22-3.907 6.477l-.004.017zM367.7 198.1c1.64-1.127 3.277-2.256 4.914-3.386l.557.804c-1.667 1.11-3.334 2.223-5 3.336l-.47-.754zm230.192-73.45c-1.117 1.703-2.016 3.075-3.112 4.75.12-2.716.536-3.35 3.112-4.75zm72.593 156.095c-.198.17-.375.356-.59.476-.044.025-.346-.288-.33-.31.143-.204.326-.38.5-.562.12.11.236.223.42.4v-.003zM589.77 138.827v3.316c-.258-.018-.512-.037-.768-.057.254-1.072.506-2.147.762-3.232l.006-.027zm-222.612-37.61l-1.178-.41c.106-.172.228-.5.314-.49.33.035.648.18.97.28l-.106.62z"/></svg>