<svg xmlns="http://www.w3.org/2000/svg" viewBox="0 0 960 560"><path fill="#fff" d="M391.7 74.23c-.53.92-1.216 1.783-1.554 2.768-.912 2.642-1.69 5.334-2.478 8.02-.16.536-.375 1.265-.15 1.675.862 1.553.215 2.95-.255 4.358-1.468 4.442-3.285 8.778-4.15 13.406-.15.81-.23 1.632-.392 2.805.756-.334 1.2-.408 1.462-.667 2.985-2.915 5.87-5.934 8.93-8.767 1.843-1.706 3.92-3.165 5.934-4.678 1.952-1.465 3.938-2.886 5.94-4.277 3.755-2.606 7.747-4.604 12.388-5.148 2.217-.26 4.386-.563 6.65-.416 2.59.172 4.473 1.44 6.25 3.068 2.02 1.844 4.06 3.666 5.995 5.597.996 1 1.782 2.21 2.66 3.327.75.952 1.368 2.06 2.274 2.832 2.562 2.185 2.79 4.875 2.032 7.866-.018.07-.038.14-.067.207-2.006 4.546-4.008 9.09-6.022 13.63-.408.92-.817 1.85-1.32 2.722-.235.412-.69.697-1.048 1.043l-.38-.25c.095-.59.19-1.18.282-1.784-1.233-.783-1.948.013-2.36.79-1.03 1.96-2.618 3.407-4.107 4.963-.485.507-.83 1.16-1.19 1.775-.72 1.23-1.407 2.483-2.3 4.06l-.49-1.195c-1.858.872-1.858.872-1.023 2.6-.147.204-.322.428-.483.66-.166.24-.317.487-.483.747-.445-.362-.697-.57-.97-.788-2.333 1.212-3.647 3.398-5.3 5.118.61.703 1.523 1.343 1.43 1.74-.197.812-.826 1.62-1.477 2.206-1.367 1.238-2.863 2.333-4.327 3.5.553 1.322 1.59 1.255 2.457 1.227 4.633-.154 9.168-.845 13.53-2.53 5.136-1.985 9.913-4.58 14.4-7.797 3.214-2.307 6.686-4.278 9.49-7.1 2.076-2.085 4.663-3.62 6.38-6.095 1.01-1.457.992-1.51.138-3.036-1.438-2.57-2.847-5.173-3.988-7.88-.472-1.12-.24-2.542-.29-3.827-.138-3.523-.545-7.083 1.17-10.393.626-1.215 1.236-2.45 1.99-3.583 1.668-2.508 3.424-4.96 5.14-7.436.57-.826 1.297-1.6 1.654-2.515.52-1.332 1.435-2.24 2.38-3.253 2.617-2.81 5.685-4.047 9.502-3.495.685.098 1.408-.098 2.22-.168l-.23-1.326c.115-.067.25-.212.342-.188 1.493.355 3.223.09 4.24 1.71.175.273.805.475 1.143.39 1.49-.376 2.03.572 2.675 1.606.477.764 1.138 1.448 1.824 2.046 1.08.943 2.192 1.87 3.392 2.65 2.83 1.842 3.76 5.255 6.21 7.363 1.275 1.1 1.997 2.464 2.44 3.974.22.756.16 1.703-.08 2.465-.468 1.492-1.133 2.925-1.758 4.363-.212.49-.556.925-.935 1.542l-1.034-1.513c-.356.408-.728.674-.88 1.033-.697 1.65-1.337 3.32-1.984 4.988-1.003 2.585-1.944 5.196-3.022 7.747-.324.768-1.113 1.328-1.53 2.073-.363.647-.827 1.508-.665 2.12.273 1.04 1.438.815 2.246.743 1.79-.164 3.57-.45 5.344-.755 4.778-.822 9.354-2.286 13.796-4.25 3.022-1.34 6.174-2.384 9.213-3.692 3.17-1.365 6.313-2.805 9.394-4.362 3.02-1.524 5.98-3.174 8.9-4.885 2.968-1.74 5.735-3.855 8.81-5.363 2.195-1.077 3.77-3.125 6.29-3.667.72-.155 1.227-1.15 1.927-1.616 2.328-1.553 4.718-3.012 7.043-4.567 1.01-.676 1.904-1.52 2.883-2.244.518-.38 1.07-.89 1.656-.965 3.22-.43 4.812-3.095 7.01-4.92.697-.584 1.38-1.208 2.148-1.686 1.752-1.094 3.594-1.938 5.053-3.58 1.492-1.686 3.514-2.91 5.316-4.313 1.24-.962 2.837-1.66 3.672-2.884 1.077-1.578 2.566-2.473 3.992-3.524.797-.59 1.872-.858 2.543-1.545 1.055-1.08 2.478-1.9 3.285-3.003 1.62-2.2 3.795-3.602 5.813-5.254 2.113-1.73 4.398-3.285 6.33-5.2 3.03-3.004 6.41-5.686 8.874-9.24.407-.586.928-1.105 1.462-1.582 2.62-2.35 5.263-4.66 7.402-7.496.586-.77 1.525-1.344 2.41-1.797 1.012-.518 1.516-1.19 1.623-2.322.077-.767.334-1.556.683-2.25 1.364-2.703 3.985-3.138 6.165-1.04 2.172 2.093 4.31 4.22 6.443 6.347.303.3.554.67.76 1.042 1.425 2.575 2.932 5.085 4.888 7.315.55.627.813 1.51 1.212 2.273.526 1.014.947 2.108 1.622 3.012.62.826.52 1.408-.094 2.085-2.314 2.56-4.577 5.176-6.953 7.68-1.965 2.074-4.057 4.024-6.137 6.07-1.76-1.18-3.256-.676-4.653.492-.33.277-.73.51-.968.857-1.04 1.53-2.548 2.476-4 3.55-2.364 1.75-4.596 3.69-6.81 5.63-4.006 3.512-7.888 7.166-12.25 10.263-1.282.912-2.324 2.152-3.525 3.19-.416.36-1.087.907-1.442.785-2.605-.885-3.848 1.203-5.492 2.387-1.107.796-2.16 1.673-3.25 2.494-.752.56-1.56 1.04-2.28 1.633-2.162 1.777-4.225 3.684-6.45 5.37-3.332 2.516-6.77 4.894-10.172 7.32-1.464 1.044-2.91 2.12-4.432 3.077-1.255.79-2.608 1.42-4.17 2.253-.095-1.368.57-2.048 1.17-2.49 1.257-.925 2.637-1.703 4.035-2.407.944-.475 1.026-1.024.587-2.01-1.913 1.286-3.617 2.724-5.562 3.66-2.11 1.02-3.983 2.327-5.73 3.8-1.65 1.388-3.975 1.94-5.44 4.15l2.422.312c-.376.528-.54.96-.853 1.164-3.484 2.28-6.967 4.526-10.668 6.49-2.432 1.287-4.865 2.716-7.24 4.174-1.208.743-2.596 1.203-3.9 1.79-.586.264-1.17.54-1.76.8-1.232.546-2.453 1.142-3.716 1.615-2.218.83-4.557 1.4-6.672 2.435-1.36.667-2.4 1.975-3.597 2.98-.632.538-1.22 1.275-1.956 1.516-3.416 1.098-6.725 2.52-10.398 2.81-2.113.168-4.17 1.03-6.254 1.586-.204.054-.396.247-.59.247-3.456-.007-6.772 1.408-10.26.998-.638-.074-1.263-.277-1.88-.46-.623-.185-1.218-.57-1.84-.61-4.534-.31-8.33-2.672-12.312-4.453-1.39-.62-2.767-.707-4.18-.832-.428-.036-1.062.22-1.315.558-.938 1.247-1.914 2.513-2.575 3.916-.568 1.206-1.036 2.138-2.602 2.07-.562-.028-1.224.348-1.716.71-1.162.852-2.317 1.732-3.35 2.73-2.4 2.325-5.22 4.097-8.022 5.815-3.79 2.328-7.533 4.797-11.837 6.202-1.762.577-3.43 1.442-5.257 2.226.104.543.207 1.076.31 1.596-.105.125-.17.294-.282.334-7.96 2.78-15.897 2.192-23.752-.366-3.902-1.27-7.715-2.82-11.537-4.325-3.238-1.274-6.16-.716-8.954 1.2-.435.3-1.1.596-1.55.476-1.546-.414-3.25-.544-4.344-2.012-.276-.37-.778-.772-1.2-.802-3.932-.275-6.79-2.95-10.15-4.495-.794-.364-1.446-.95-2.577-.415-.222 1.207-.52 2.526-.692 3.862-.17 1.337.16 2.75-.697 3.978-.136.195-.114.576-.037.83.652 2.12.167 3.917-1.448 5.43-.14.13-.188.39-.217.594-.02.123.078.262.14.44l1.033-.196c.492 3.627.143 7.196-.37 10.76-.09.627-.18 1.275-.118 1.895.09.87.39 1.722-.925 1.97-.134.024-.282 1.09-.09 1.522.81 1.82 1 3.562.538 5.584-.634 2.776-.938 5.655-1.083 8.505-.13 2.506.167 5.03.248 7.546.054 1.647.046 3.296.08 4.946.082 3.74.108 7.485.272 11.224.167 3.882.547 7.756.665 11.64.036 1.18-.416 2.4-.805 3.548-.118.346-.77.688-1.196.716-.772.05-1.587-.043-2.34-.244-2.693-.724-5.38-1.467-8.033-2.324-.49-.16-1.032-.826-1.15-1.348-.498-2.248-.967-4.514-1.22-6.8-.308-2.786-.4-5.598-.56-8.4-.046-.784-.007-1.57.2-2.377 1.135 2.528.134 5.496 1.938 7.898l-.673-13.86-.31-.114c-.196.376-.42.745-.585 1.137-.18.43-.3.88-.617 1.293-.98-5.033-.51-10.065-.142-15.167.282.868.563 1.734.993 3.04 1.305-3.634.01-6.822.534-10.357-.858.423-1.305.64-2.042 1.006.115-2.065.207-3.908.34-5.745.016-.244.208-.626.396-.68 1.287-.376.885-1.47 1.252-2.683l-1.884 1.12.224-4.126 1.89-.184.637-18.438c-.41 0-.638-.045-.667.01-.504 1-.73 2.397-1.536 2.933-1.09.726-1.443 1.68-1.97 2.688-.937 1.778-2 3.49-3.023 5.22-2.752 4.646-5.512 9.285-8.27 13.925-.22.37-.543.697-.688 1.093-1.55 4.244-4.182 7.865-6.746 11.5-1.522 2.16-3.333 4.125-5.114 6.084-1.2 1.317-2.582 2.465-3.865 3.708-.19.188-.28.478-.465.808.406.313.76.59 1.167.898-2.763 2.317-5.66 2.846-8.938 1.538-2.472-.984-5.1-1.604-7.51-2.713-2.916-1.342-5.677-3.023-8.498-4.57-1.067-.59-2.163-1.146-3.165-1.835-2.99-2.06-3.868-5.224-4.275-8.582-.225-1.856-.34-3.724-.53-5.584-.033-.336-.18-.664-.412-1.48-.735 1.03-1.328 1.7-1.74 2.467-1.566 2.923-3.048 5.887-4.613 8.81-1.05 1.955-2.02 3.97-3.698 5.515-.232.212-.397.59-.428.912-.255 2.548-1.887 4.465-3.025 6.603-.16.302-.465.614-.775.733-1.88.727-2.328 2.44-2.852 4.082-.54 1.686-.818 3.476-1.523 5.083-.896 2.034-2.06 3.96-3.198 5.88-.92 1.546-1.846 3.118-2.992 4.492-2.143 2.568-4.945 3.747-8.278 2.918-2.43-.604-4.833-1.3-7.04-2.642-1.26-.765-2.84-.99-4.255-1.51-.73-.267-1.582-.48-2.096-1.005-1.75-1.774-4.055-1.692-6.217-2.007-.603-.087-1.34.426-1.958.772-2 1.124-3.95 2.342-5.968 3.433-1.02.55-1.87 1.207-2.735 1.994-1.53 1.384-3.343 2.473-5.106 3.575-4.64 2.897-9.296 5.767-13.99 8.573-2.093 1.254-4.308 2.302-6.443 3.49-4.15 2.312-8.456 4.3-12.722 6.378-5.313 2.588-10.777 4.778-16.208 7.063-2.18.918-4.417 1.702-6.61 2.593-1.246.505-1.932 1.428-1.954 2.835-.024 1.72-.097 3.44-.196 5.16-.03.557-.125 1.14-.34 1.648-.838 1.967-1.76 3.902-2.61 5.867-1.247 2.893-1.914 6.03-3.83 8.645-.526.72-.727 1.687-1.03 2.556-.78 2.226-1.302 4.522-2.71 6.533-1.003 1.435-1.556 3.183-2.344 4.774-.35.704-.732 1.41-1.2 2.04-.65.875-.886 1.786-.578 2.86l1.244.442c-.174.41-.268.755-.45 1.046-2.933 4.737-6.492 8.987-10.424 12.896-2.237 2.22-4.803 4.11-7.233 6.134-.83.69-1.61 1.656-2.57 1.923-1.972.547-3.394 1.84-4.997 2.925-3.307 2.236-6.93 1.815-10.42.73-2.866-.892-5.583-2.26-8.346-3.458-.586-.255-1.176-.607-1.617-1.06-2.03-2.085-4.78-2.955-7.287-4.123-1.566-.73-2.535-1.79-3.502-3.015-3.063-3.88-4.633-8.41-5.702-13.156-.08-.35-.21-.703-.207-1.053.04-4.242.192-8.488.13-12.73-.047-2.992.887-5.805 1.227-8.715.242-2.058 1.14-3.76 2.083-5.506.402-.75.617-1.605.945-2.4 2.05-4.968 4.906-9.4 8.67-13.252 2.116-2.162 4.124-4.448 6.698-6.07 1.81-1.14 3.714-2.17 5.666-3.047 2.617-1.18 5.303-2.217 8-3.204 1.685-.617 3.427-1.12 5.178-1.515 5.9-1.333 11.822-2.576 17.524-4.663 1.212-.442 2.512-.644 3.76-.998 2.343-.666 2.6-1.127 2.922-3.528.303-2.277.898-4.517 1.256-6.79.818-5.195 1.708-10.37 1.963-15.65.214-4.45.938-8.876 1.23-13.326.344-5.246.423-10.507.694-15.757.185-3.588.494-7.167.762-10.748.12-1.61-.373-2.19-1.972-1.88-2.044.397-4.037 1.062-6.08 1.48-3.794.78-7.6 1.513-11.417 2.173-2.976.518-5.964 1.005-8.967 1.303-3.7.37-7.413.593-11.15.192-1.845-.2-3.746.164-5.61.067-1.852-.097-3.733-.29-5.53-.73-2.993-.734-5.968-1.587-8.874-2.61-1.75-.618-3.354-1.64-5.02-2.495-5.073-2.598-9.198-6.42-13.074-10.484-2.575-2.698-4.868-5.677-7.178-8.613-.644-.82-.892-1.95-1.363-2.916-.626-1.288-1.204-2.608-1.963-3.813-.95-1.508-2.076-2.907-3.095-4.372-.24-.35-.465-.767-.512-1.175-.044-.385.035-.936.286-1.153.202-.17.86-.084 1.107.127.644.543 1.21.946 2.125.617.865-.31 1.413.376 1.716.988.496 1.01 1.278 1.448 2.29 1.77 1.23.39 2.42.908 3.606 1.428 1.18.52 2.258 1.083 2.927 2.382.316.61 1.382.965 2.18 1.177 4.45 1.173 8.903 2.368 13.4 3.342 2.16.467 4.43.704 6.634.617 5.464-.21 10.938-.315 16.333-1.556 5.686-1.303 11.49-2.1 17.15-3.492 5.16-1.27 10.226-2.953 15.274-4.633 2.72-.906 5.312-2.2 7.967-3.3 1.484-.616 2.237-1.742 2.427-3.302.335-2.714.657-5.433 1.01-8.147.945-7.214 1.852-14.435 3.49-21.536.126-.546.304-1.08.482-1.703.52.134.907.23 1.403.358.21-.55.466-1.06.603-1.603 1.113-4.39 2.205-8.787 3.306-13.18.052-.208.09-.496.237-.593 2.052-1.344 1.935-3.87 3.122-5.682.232-.357.495-.75.557-1.156.58-3.836 2.655-7.11 4.046-10.635 1.234-3.138 2.754-6.175 4.295-9.18 1.747-3.407 4.104-6.424 6.622-9.286.955-1.087 2.267-1.858 3.415-2.773l.416.427c-.44.482-.836 1.024-1.337 1.432-2.677 2.175-4.626 4.895-6.105 7.98-.094.196-.14.425-.275.586-1.547 1.85-1.994 4.077-2.28 6.38-.058.475-.255 1.028-.577 1.358-1.877 1.917-2.595 4.173-2.108 7.185.48-.515.916-.825 1.136-1.247 1.226-2.366 2.43-4.742 3.58-7.144 1.66-3.466 3.724-6.647 6.57-9.253 2.064-1.89 4.097-3.852 6.372-5.46 2.516-1.777 5.244-3.285 8.363-3.86 2.192-.406 4.384-.832 6.565-1.297.507-.11.974-.416 1.458-.63l-.027-.52c-.872-.168-1.737-.406-2.615-.48-.78-.067-1.603.193-2.362.056-3.068-.546-6.04.676-9.103.415 1.1-.66 2.17-1.19 3.532-1.207 1.72-.02 3.47-.2 5.144-.587 1.885-.432 3.694-.358 5.562-.023 1.545.28 3.125.378 4.687.558.07.008.146.002.213.027 2.607 1.002 5.34 1.765 7.783 3.075 2.71 1.455 5.155 3.41 7.72 5.142.297.2.638.334.932.542 1.287.9 2.775 1.63 3.813 2.763 4.636 5.063 8.9 10.41 11.752 16.738.68 1.51 1.49 2.96 2.24 4.438 1.98 3.903 2.128 8.1 1.56 12.266-.852 6.257-2.784 12.24-5.978 17.715-2.135 3.66-4.532 7.172-6.917 10.68-.758 1.118-1.86 2-2.776 3.01-3.714 4.1-6.892 8.747-11.483 11.956-2.733 1.91-5.132 4.157-7.59 6.364-.268.242-.528.497-.83.69-4.732 3.023-9.473 6.034-14.205 9.06-.355.228-.805.47-.965.818-.812 1.768-2.445 2.405-4.08 2.924-2.843.906-5.414 2.356-7.875 3.953-2.135 1.385-4.332 2.52-6.732 3.362-1.55.543-3.103 1.224-4.455 2.14-.66.446-1.062 1.528-1.23 2.392-.424 2.19-.65 4.417-.957 6.63-.104.752.006 1.58-.8 2.2-1.483-1.057-.328-2.977-1.484-4.227-.997 1.1-.986 2.438-1.086 3.615-.26 3.004-.288 6.026-.438 9.04-.036.716-.11 1.447-.295 2.133-1.318 4.922-1.438 9.957-1.53 14.997-.01.503.046 1.033-.087 1.506-.858 3.013-.738 6.152-.814 9.196-.078 3.04-.355 6.027-.765 9.01-.397 2.903-.99 5.775-1.496 8.66-.062.355-.174.71-.16 1.063.046 1.06.656 1.58 1.716 1.322 1.046-.255 2.092-.594 3.057-1.06 3.11-1.502 6.223-3.017 9.272-4.64 3.492-1.86 6.975-3.755 10.372-5.785 5.315-3.178 10.567-6.46 15.824-9.736 5.007-3.125 10.026-6.23 14.96-9.467 4.04-2.645 8.004-5.412 11.904-8.258.72-.527 1.218-1.632 1.412-2.554.89-4.227 1.58-8.497 2.457-12.726.39-1.89 1.045-3.73 1.592-5.592 1.844-6.286 3.74-12.56 5.52-18.868 1.483-5.26 2.843-10.556 4.22-15.845.56-2.143 1.69-3.757 3.716-4.778.74-.373 1.345-1.046 1.963-1.632 1.422-1.35 1.715-1.285 2.34.692 1.095-.23 1.98 0 2.763.992 1.655 2.08 4.292 2.768 6.413 4.196.876.587 1.748 1.2 2.535 1.9 1.905 1.694 3.152 4.018 5.354 5.46 1.176.77 1.328 3.683.255 4.624-2.28 2.007-3.356 4.56-4.004 7.46-.482 2.17-1.332 4.266-2.113 6.355-1.207 3.232-2.71 6.37-3.693 9.67-.94 3.145-1.583 6.418-1.23 10.19.56-.69.966-1.06 1.21-1.52 2.312-4.32 4.67-8.62 6.87-12.997 3.398-6.76 6.65-13.59 10.032-20.356 1.123-2.245 2.548-4.335 3.678-6.575 1.22-2.418 2.178-4.967 3.393-7.386 2.132-4.245 3.977-8.63 6.61-12.628 1.735-2.63 3.18-5.463 4.624-8.27 1.062-2.065 1.562-4.324 1.65-6.66.12-3.082 3.616-5.707 6.552-4.733 1.535.506 2.915 1.497 4.364 2.27 1.193.636 2.467 1.158 3.56 1.936 1.866 1.33 3.62 2.82 5.42 4.246.052.043.11.107.126.17.735 2.976 2.82 5.285 3.96 8.066.403.97.964 1.94 1.672 2.706 1.368 1.482 1.238 1.562.177 3.184-2.173 3.32-4.927 6.333-5.88 10.356-.447 1.89-1.018 3.755-1.388 5.66-.65 3.325-2.327 6.323-2.787 9.74-.306 2.276-1.395 4.448-2.28 7.116-.804-2.307 1.187-4.034.083-6.373-.47.958-.864 1.522-1.033 2.148-.96 3.61-1.872 7.236-2.79 10.858-.14.56-.16 1.153-.343 1.695-1.61 4.84-1.694 9.91-2.29 14.9-.238 2-.728 3.965-1.018 5.955-.12.83-.02 1.69-.02 2.682 1.72-.205 2.832-1.157 3.773-2.15 1.48-1.562 2.907-3.215 4.077-5.012 3.85-5.91 7.695-11.832 11.312-17.885 3.065-5.13 5.855-10.425 8.69-15.69 2.417-4.495 4.79-9.015 7.06-13.587 1.66-3.347 3.106-6.803 4.666-10.204 1.102-2.407 2.293-4.776 3.326-7.21.586-1.378.938-2.857 1.38-4.293.406-1.306.698-2.655 1.212-3.916.504-1.234 1.307-2.34 1.844-3.563 1.468-3.347 1.927-6.924 2.235-10.527.042-.5-.01-1.014.066-1.51.435-2.752.936-5.494 1.332-8.25.43-2.99.697-6.01 1.167-8.995.504-3.195 1.107-6.376 1.756-9.545 1.098-5.348 2.225-10.688 3.42-16.014.49-2.165 1.19-4.278 1.798-6.418 1.02-3.602 1.995-7.215 3.08-10.795.305-1.005.907-1.917 1.403-2.856.132-.25.36-.456.578-.644 1.107-.96-.174-2.75 1.368-3.65 1.352-.792 1.046-2.438 1.392-3.715.505-1.868.81-3.79 1.266-5.67.338-1.4.778-2.776 1.176-4.16.138-.486.147-1.154.476-1.416 2.17-1.72 1.54-4.38 2.244-6.572.35-1.09.523-2.182 1.22-3.165.487-.684.688-1.577.963-2.394.614-1.832 1.888-2.203 3.13-.786.572.653 1.145.772 1.958.96 3.51.798 6.917 1.804 9.41 4.804 1.112 1.338 2.797 2.202 4.237 3.263 1.06.783 1.923 1.66 2.427 2.95.292.745.942 1.48 1.623 1.912 1.57.995 1.93 2.383 1.86 4.114-2.25 1.07-3.26 2.744-3.58 5.233-.478 3.687-1.477 7.31-2.235 10.965-.13.633-.195 1.282-.264 1.926-.095.886-.475 1.498-1.61 1.62l-.746-1.843c-1.11 1.348-2.14 4.315-2.26 5.675-.094 1.046-.352 2.135-.794 3.084-1.072 2.307-1.683 4.667-2.07 7.198-.65 4.22-1.85 8.344-4.258 12.324l-.2-1.456c-1.83.942-2.99 4.465-3.144 9.507l.054-.08.01-.01zm-196.654 52.776c1.25-.675 2.465-1.162 3.487-1.91 4.178-3.058 8.36-6.115 12.413-9.333 2.75-2.182 5.264-4.657 7.923-6.957.747-.646 1.66-1.1 2.45-1.703.495-.378 1.186-.805 1.308-1.322.384-1.615 1.695-2.416 2.702-3.48 1.266-1.342 2.715-2.533 3.835-3.984 1.352-1.75 2.486-3.674 3.63-5.576 1.073-1.784 1.97-3.674 3.058-5.448 2.06-3.37 3.376-6.994 3.866-10.898.325-2.588-.67-3.79-3.215-4.55-2.443-.73-4.92-1.164-7.452-1-2.354.152-4.8.175-7.016.862-4.747 1.475-8.297 4.803-11.445 8.508-1.247 1.47-2.477 3.084-3.182 4.85-1.2 2.99-3.044 5.67-3.88 8.842-.545 2.062-1.673 3.962-2.385 5.99-1.12 3.18-2 6.45-3.185 9.606-.992 2.642-1.743 5.297-2.124 8.1-.276 2.043-.932 4.036-1.404 6.056-.25 1.065-.335 2.12.62 3.35l-.006-.002zM145.588 271.44c-.96.254-1.962.388-2.847.784-2.166.965-4.277 2.06-6.42 3.08-.51.242-1.102.64-1.587.557-1.907-.32-3.145.638-4.334 1.892-.49.514-1.078.995-1.715 1.295-3.09 1.456-4.87 4.204-6.756 6.82-1.08 1.497-1.883 3.192-2.902 4.737-.33.5-.904 1.01-1.458 1.15-.738.188-1.146.55-1.378 1.193-.614 1.692-1.387 3.355-1.754 5.103-.37 1.757-1.853 3.015-1.537 5.19.272 1.85-.734 3.88-1.11 5.842-.117.62-.146 1.31 0 1.915.283 1.183.766 2.32 1.07 3.496.272 1.05.932 1.488 1.904 1.24 1.244-.315 2.53-.643 3.647-1.246 2.944-1.593 5.224-4.025 7.637-6.297 3.853-3.625 7.054-7.79 9.638-12.34 1.723-3.038 3.45-6.102 4.904-9.33 1.774-3.943 3.303-7.963 4.867-11.98.354-.91.75-1.875.134-3.102h-.002zm238.3-130.63c.922-.184 1.365-.18 1.72-.356 1.59-.794 3.184-1.596 4.73-2.474 3.01-1.716 5.755-3.77 8.372-6.075 2.37-2.085 4.693-4.167 6.69-6.618.81-.995 1.71-1.928 2.647-2.805 1.244-1.163 1.29-1.797.004-3.007-.304-.286-.692-.48-1.11-.762-.595.335-1.213.573-1.7.974-1.11.912-2.26 1.813-3.208 2.883-2.62 2.954-5.637 5.558-7.848 8.88-.346.52-.88 1.044-1.443 1.262-1.357.515-1.957 1.617-2.56 2.775-.266.503-.534 1.062-.956 1.408-.353.29-.932.3-1.63.496.256-2.122 1.996-3.31 1.975-5.62-2.818 2.602-4.676 5.257-5.682 9.04zm-.035-113.503c1.243-.778 1.605-1.76 1.92-2.778.657-2.124 1.328-4.245 1.966-6.375.304-1.017.65-2.038.79-3.08.175-1.308.504-2.48 1.24-3.62.73-1.133 1.268-2.42 1.703-3.702.35-1.02.034-1.94-1.285-2.473-.134.22-.268.392-.353.59-.96 2.218-1.754 4.528-2.91 6.64-1.61 2.943-2.313 6.175-3.382 9.29-.125.367-.178.978.03 1.203.788.858.417 1.75.296 2.664-.064.453-.014.92-.014 1.643l-.003-.003zM595.925 89.06c-1.15.98-2.143 1.928-3.245 2.73-1.13.818-2.328 1.528-2.934 2.896.855.554 1.455.295 2.028-.23 1.256-1.157 2.528-2.294 3.77-3.464.445-.42 1.035-.845.38-1.934v.002zm1.394.477c1.112-1.247 2.832-1.258 2.708-3.09-1.89.248-2.584.925-2.71 3.088v.002zm-185.862 55.718c-1.5-.113-2.294.528-2.978 2.524 1.294-.725 2.432-1.18 2.978-2.522v-.003zM584.893 98.41c-1.395.216-2.373.592-2.97 2.182 1.32-.536 2.564-.527 2.97-2.183zm56.205-40.016l.376.362c1.958-.546 2.034-.654 1.24-2.06l-1.616 1.698zm-371.555 114.87c-.16-.014-.315-.03-.472-.047-.208 1.167-1.024 2.267.108 3.57l.362-3.522h.003zM645.993 53.78c1.03-.408 1.652-.7 1.614-1.706-1.18.434-1.18.434-1.613 1.71v-.003zm-412.83 174.562l-.353-.438c-.64.5-1.598.613-1.576 1.936.644-.5 1.288-.998 1.927-1.498h.003zm-10.453 6.043l.386.482 1.47-1.177c-.127-.16-.255-.316-.38-.475-.492.392-.984.782-1.478 1.17h.002zm49.194-69.818l-.38-.063-.457 2.122c.153.027.303.058.456.086l.38-2.145zm314.242-67.425c.882.502 1.267.295 1.46-.353.032-.098-.084-.24-.224-.582l-1.236.934zM168.85 112.054l-.3-.16c-.176.167-.468.314-.502.51-.05.267.094.57.153.857h.357l.292-1.206zM271.48 168.07c-1.163.192-1.27.645-1.133 1.68.433-.643.676-1 1.132-1.68zm143.614-25.727l-.324-.342-.6.655c.074.08.146.165.223.247l.7-.56zm164.898-40.427c-.118-.033-.233-.08-.354-.09-.026-.004-.104.136-.09.15.073.086.167.154.254.228.064-.094.127-.192.19-.288zm-424 200.322c.32-2.13 1.12-3.506 2.892-4.355-.807 1.533-1.617 3.064-2.427 4.6l-.463-.244h-.002zm200.294-131.79c-.178.3-.355.603-.534.9l-.442-.312.674-.824.303.234h-.002zm35.35-96.16c.902.482.902.482.32 1.52l-.26-1.577-.06.057zm-35.876 122.165c-.16-.134-.35-.23-.338-.29.035-.178.145-.342.228-.51.098.08.282.164.282.242-.007.177-.103.352-.172.558zM168.67 107.43c-.065-.097-.18-.195-.18-.294 0-.113.098-.228.155-.34.1.13.222.25.28.396.015.04-.166.158-.256.24zM168.85 112.054l-.293 1.207h-.357c-.06-.286-.2-.59-.153-.857.036-.194.327-.342.503-.51l.3.16zm411.144-10.138l-.188.29c-.09-.075-.186-.142-.258-.228-.014-.016.067-.156.09-.152.123.01.238.056.356.09z"/><g fill="#fff"><path d="M501.786 304.053c-1.314 4.207-2.636 8.407-3.933 12.62-1.648 5.352-3.27 10.715-4.927 16.065-1.385 4.477-2.943 8.907-4.163 13.428-.665 2.457-.812 5.035-2.056 7.352-.993 1.85-1.872 3.773-2.655 5.726-.355.892-.342 1.93-.516 2.896-.194 1.073-.26 2.2-.644 3.2-1.294 3.346-2.614 6.69-4.11 9.947-.777 1.687-1.095 3.38-.583 5.07.58 1.92 1.28 3.87 2.33 5.56 1.66 2.673 5.35 2.86 8.155.273 3.85-3.554 7.55-7.284 11.13-11.11 2.503-2.676 4.77-5.586 7.006-8.496 1.447-1.883 2.53-4.046 3.978-5.927 3.5-4.553 5.804-9.736 8.22-14.88 1.328-2.815 3.03-5.45 4.372-8.262 1.535-3.226 2.854-6.555 4.275-9.835.18-.42.368-.854.64-1.215 1.816-2.428 2.302-5.36 3.12-8.167.902-3.084 1.83-6.16 2.724-9.246.692-2.383 1.28-4.795 2.03-7.16 1.89-5.96 3.413-11.99 4.298-18.19.34-2.387.017-4.536-.838-6.724-.697-1.792-1.44-3.607-1.79-5.482-.74-3.924 1.495-6.957 5.395-7.558 1.26-.195 2.59-.35 3.84-.174 2.82.383 5.61 1 8.417 1.488 1.242.215 2.508.3 3.748.51 2.615.445 5.24.868 7.832 1.428 1.9.413 3.164 1.856 4.723 2.83-.354.485-.432.727-.566.76-2.675.692-2.7.756-2.84 3.44-.104 2.008-.343 4.01-.447 6.02-.038.724.048 1.48.234 2.187 2.486 9.427 4.988 18.85 7.517 28.264 1.003 3.734 2.052 7.457 3.15 11.163.325 1.104.89 2.137 1.33 3.175 3.615-1.2 4.87-3.76 4.19-6.98-.77-3.677-.955-7.477-1.706-11.156-1.283-6.303-1.127-12.638-.694-18.97.235-3.48.945-6.924 1.39-10.392.946-7.335 2.984-14.37 5.5-21.312 1.604-4.42 3.19-8.797 5.703-12.81 2.71-4.33 6.088-8.027 9.99-11.276.402-.335.974-.67 1.462-.666 2.463.02 4.943.01 7.388.285 2.852.32 5.528 1.257 7.912 2.97.41.298 1.225.244 1.783.094 3.162-.862 5.58.097 7.113 2.972.64 1.2 1.186 2.446 1.855 3.842l1.77-1.178c1.823.885 2.055 2.67 2.332 4.37.707 4.304.5 8.604.04 12.93-.82 7.73-2.987 15.125-5.095 22.57-2.04 7.203-4.86 14.082-7.714 20.957-1.724 4.152-3.634 8.247-6.433 11.83-1.86 2.378-2.615 5.49-5.002 7.514.13 1.7-.144 3.568.48 5.06 1.01 2.416 2.607 4.586 3.834 6.656 4.03.23 6.236-2.314 8.7-4.277 1.21-.967 2.288-2.15 3.264-3.367 3.38-4.224 6.895-8.32 9.424-13.192 2.92-5.618 6.386-10.955 9.347-16.555 2.524-4.774 4.844-9.675 6.934-14.657 2.223-5.307 2.455-11.107 3.53-16.7.972-5.05 1.93-10.105 2.907-15.157.854-4.408 1.844-8.796 2.556-13.227.566-3.513.808-7.08 1.185-10.624.15-1.428.862-1.96 2.43-1.932 1.642.03 3.293-.147 4.922-.014 1.538.13 3.167.282 4.555.888 3.212 1.395 6.4 2.628 9.97 2.75 1.858.06 2.795.98 3.078 2.956.302 2.092.588 4.244.394 6.323-.336 3.56-1.013 7.087-1.617 10.615-.422 2.443-.91 4.878-1.465 7.295-.945 4.117-1.984 8.218-2.937 12.337-.12.527.054 1.123.342 1.722 2.695-3.102 2.638-7.234 4.353-11.346.682 1.842.157 3.04-.17 4.134-1.424 4.75-2.81 9.524-4.495 14.183-2.655 7.326-2.71 14.95-2.968 22.563-.05 1.553.04 1.555 1.172 3.124.69-.898 1.325-1.746 1.984-2.575 1.53-1.93 3.03-3.89 4.627-5.766.79-.93 1.64-1.735 1.304-3.136-.067-.273.188-.733.435-.952 5.223-4.68 6.943-11.256 9.502-17.393 1.797-4.305 3.486-8.66 5.297-12.937 2.734-6.458 5.15-12.95 6.7-19.79 1.1-4.834 2.43-9.617 3.642-14.428.29-1.157.522-2.33.762-3.5 1.01-4.944 2.152-9.87 2.968-14.847.547-3.34.644-6.76.9-10.144.067-.916-.087-1.848-.004-2.758.277-3.023 1.135-3.99 4.125-3.94 2.446.04 4.837.383 7.158 1.63 2.47 1.32 5.23 2.413 7.975 2.78 2.806.374 4.827.99 5.145 4.255l.662.322.995-2.053c.206.46.32.704.424.952.806 1.957.745 3.978.286 5.973-1.1 4.782-1.445 9.618-1.51 14.52-.084 6.332-.484 12.66-.76 18.993-.006.153-.182.3-.352.563-.9-2.81-1.23-5.557-.65-8.388.39-1.91.345-3.79-.466-6.11-.966 3.003-.858 5.62-.888 8.232-.05 4.23-.223 8.462-.195 12.688.02 3.487.268 6.973.39 10.46.133 3.835.15 7.676.36 11.506.266 4.865.494 9.746 1.065 14.58.692 5.835 1.697 11.634 2.632 17.44.195 1.216.678 2.39 1.14 3.96 1.516-.738 2.715-1.17 3.756-1.846 5.466-3.55 10.868-7.197 16.34-10.74 2.772-1.798 5.612-3.496 8.468-5.15 7.792-4.508 15.61-8.96 23.405-13.454 4.21-2.427 8.314-5.05 12.61-7.303 3.58-1.877 7.376-3.332 11.064-5.004 1.255-.567 2.45-1.264 3.703-1.84 5.748-2.646 11.43-5.463 17.293-7.83 3.73-1.505 7.737-2.32 11.618-3.458 1.568-.462 3.15-.755 4.412-2.084.66-.692 1.995-1.095 2.99-1.032 1.596.098 3.167.68 4.744 1.083.797.2 1.577.47 2.374.683.53.142 1.134.127 1.603.373 2.096 1.09 4.15 2.257 6.223 3.386.563.31 1.117.754 1.72.854 2.783.46 4.677 2.446 6.9 3.875 1.145.742 2.34 1.425 3.432 2.24.557.41 1.133.992 1.32 1.615.118.393-.368 1.348-.74 1.443-1.13.287-2.434.625-3.49.318-2.822-.818-5.605-.703-8.435-.287-1.27.187-2.552.504-3.827.488-5.642-.067-10.902 1.625-16.09 3.5-6.557 2.374-13.027 5-19.535 7.51-.43.167-.866.322-1.314.425-9.974 2.258-18.867 7.067-27.82 11.747-3.584 1.875-7.223 3.648-10.82 5.493-1.88.963-3.73 1.98-5.753 3.052-.52-.482-1.056-1.395-1.648-1.435-.82-.054-1.727.47-2.52.89-6.328 3.373-12.67 6.715-18.934 10.2-2.958 1.65-5.747 3.595-8.622 5.397-.222.14-.497.198-.813.32-1.035-.79 1.05-2.778-.928-3.04-1.268 1.367-2.448 2.65-3.82 4.13.988 1.645-.183 2.713-1.69 3.635-.476.288-.962.55-1.425.848-2.786 1.788-3.084 2.758-2.116 5.98.818 2.73 1.375 5.544 2.303 8.233 1.854 5.39 3.982 10.682 5.807 16.08 1.558 4.618 3.25 9.252 4.16 14.02 1.528 8.02 3.017 16.072 3.325 24.276.207 5.555-.49 10.942-2.38 16.2-1.24 3.454-2.027 7.072-3.3 10.515-1.375 3.73-3.55 7.067-6.114 10.11-4.098 4.855-8.605 9.303-13.406 13.47-2.635 2.288-5.064 4.81-7.656 7.15-3.27 2.954-6.585 5.7-11.11 6.797-2.52.613-4.772 2.314-7.17 3.474-6.746 3.25-13.772 5.675-21.127 7.12-5.95 1.17-11.88 2.448-17.86 3.452-11.772 1.98-23.627 1.922-35.485.998-3.486-.27-6.96-.682-10.425-1.132-8.12-1.055-16.23-2.202-24.348-3.26-6.48-.84-12.95-1.88-19.456-2.306-4.463-.295-8.984.313-13.477.523-1.74.084-3.487.256-5.224.244-1.757-.01-3.012-.918-3.433-2.652-.322-1.324-.59-2.704-.59-4.06-.006-1.532.956-2.507 2.44-2.4 2.486.175 4.525-.874 6.307-2.276 4.76-3.752 9.373-7.69 14.064-11.536 7.108-5.823 13.903-12.03 21.54-17.197 2.808-1.9 5.34-4.216 7.966-6.377 3.902-3.204 7.805-6.402 11.648-9.672 3.286-2.795 6.456-5.727 9.738-8.523 7.627-6.503 15.28-12.98 22.94-19.44 3.16-2.665 6.333-5.32 9.574-7.89 5.68-4.5 11.45-8.898 17.127-13.408 3.237-2.568 6.33-5.318 9.555-7.905 3.656-2.938 7.328-5.854 11.097-8.642 5.092-3.77 10.293-7.387 15.42-11.107 1.853-1.348 3.61-2.832 5.443-4.215 1.002-.754.918-1.707.677-2.735-.815-3.492-1.706-6.97-2.427-10.483-1.274-6.213-2.59-12.426-3.58-18.686-.367-2.328-1.583-3.498-3.57-4.5-2.99 3.112-3.507 7.566-5.773 11.08-.195.308-.026.847-.026 1.538 2.537-.777 1.788-3.75 4.107-4.768-.31.94-.476 1.672-.774 2.348-1.94 4.364-3.795 8.77-5.907 13.053-1.13 2.288-2.716 4.35-4.086 6.52-.657 1.043-1.287 2.102-2.15 3.51 1.192-.25 1.843-.388 2.772-.587-.877 2.636-2.9 3.726-4.888 5.496.565-1.275.932-2.093 1.297-2.91l-.53-.292c-1.242 1.013-2.774 1.683-2.694 3.86.062 1.602-1.304 2.69-3.288 3.17-5.324 1.285-10.623 1.56-16.056.433-4.765-.99-9.634-1.47-14.442-2.26-1.47-.24-2.2.51-2.926 1.546-2.11 3.01-4.136 6.094-6.417 8.97-2.683 3.378-5.482 6.684-8.444 9.82-4.492 4.762-10.23 6.622-16.678 6.68-3.95.033-7.898.325-11.85.308-1.917-.01-3.827-.48-5.743-.71-1.824-.215-3.683-.682-5.482-.523-4.162.367-7.63-1.326-10.777-3.56-2.146-1.522-3.856-1.83-5.918-.222-1.226.96-2.52 1.832-3.787 2.74-1.065.77-1.153 1.65-.673 2.884 1.133 2.902 2.146 5.856 3.087 8.828.542 1.71.42 3.46-.382 5.12-.506 1.04-1.207 1.78-2.42 2.046-5.633 1.23-11.26 2.486-16.88 3.78-10.457 2.403-20.996 2.49-31.564 1.036-2.168-.3-3.514.11-4.864 1.978-4.646 6.423-9.977 12.29-15.772 17.698-5.796 5.414-12.672 8.67-20.57 9.834-4.542.668-9.033 1.662-13.558 2.47-3.615.646-7.226 1.555-10.87 1.735-3.068.15-6.23-.35-9.256-.995-1.89-.402-3.144-.373-4.67 1.046-3.9 3.63-7.872 7.23-12.16 10.37-2.78 2.034-6.104 3.378-9.298 4.782-5.23 2.3-10.805 3.508-16.36 4.76-2.593.582-5.136 1.404-7.674 2.21-7.97 2.528-15.95 2.295-23.897.02-1.732-.496-3.326-1.55-4.917-2.462-1.354-.778-2.403-.765-3.74.24-3.528 2.643-6.977 5.54-10.883 7.48-3.792 1.887-7.327 4.546-11.696 5.194-.267.04-.565.13-.767.295-2.055 1.676-4.755 1.947-6.965 3.155-3.108 1.703-5.06.59-6.512-3.03-.774-1.93-1.162-4.045-1.486-6.113-.208-1.324.805-2.187 1.904-2.78 1.35-.726 2.726-1.4 4.284-2.198.19.21.51.567 1.07 1.186.603-1.413 1.014-2.75 1.71-3.91.748-1.247 1.763-2.327 3.05-3.977l-.148 2.023c.27-.06.604-.026.732-.174 2.52-2.91 4.975-5.882 7.536-8.758 1.828-2.052 3.755-4.023 5.702-5.965 1.864-1.86 2.206-3.898 1.788-6.528-.92-5.794-1.774-11.59-1.676-17.54.1-6.095.568-12.118 1.596-18.09.542-3.16 1.482-6.272 2.508-9.314 2.212-6.562 4.975-12.923 9.166-18.466 5.682-7.514 12.445-13.808 21.635-16.88 4.32-1.44 8.713-.913 13.123-.385 3.37.402 6.786.415 10.16.798 1.885.212 3.874.51 5.553 1.313 3.135 1.502 4.234 4.412 4.29 7.757.02 1.094.004 2.19.004 3.406.684.214 1.254.397 1.877.596.058.236.147.492.188.756.676 5.005-1.31 9.48-3.326 13.743-4.56 9.64-9.987 18.8-16.41 27.35-3.364 4.475-6.652 9.007-9.943 13.536-.365.505-.772 1.153-.764 1.73.025 2.016-1.09 3.473-2.18 4.952-2.015 2.735-4.036 5.47-6.132 8.14-1.132 1.446-1.257 2.886-.174 4.296 1.564 2.034 3.193 4.022 4.913 5.927.996 1.103 2.286 1.826 3.878 1.87.532.017 1.146.142 1.58.433 2.39 1.61 4.496.65 6.714-.475 4.414-2.242 8.14-5.356 11.59-8.838 5.325-5.37 10.21-11.076 13.768-17.835 1.323-2.512 2.892-4.902 4.445-7.287.912-1.395 1.11-2.793.966-4.44-.317-3.54-1.033-7.018-1.154-10.612-.125-3.74.062-7.478-.13-11.214-.04-.817-.21-1.636-.247-2.453-.08-1.828-.31-3.678-.122-5.48.247-2.363.832-4.645.59-7.102-.174-1.746.483-3.568.73-5.362.547-4 1.108-7.995 1.59-12.002.326-2.73.495-5.48.782-8.215.688-6.586 1.686-13.11 3.27-19.56 1.047-4.272 1.546-8.677 2.337-13.01.395-2.164.876-4.313 1.34-6.465 1.11-5.123 2.15-10.265 3.378-15.36 1.117-4.644 2.24-9.302 3.728-13.83 1.926-5.848 3.98-11.677 6.438-17.313 1.644-3.76 4.01-7.217 6.216-10.708.71-1.126 1.926-1.944 2.94-2.874.54-.496 1.35-.807 1.683-1.4 1.286-2.3 3.335-2.222 5.502-2.046 2.105.17 4.217.31 6.327.367 1.85.048 3.673.042 5.34 1.063.44.272 1.05.35 1.59.373 1.28.06 2.614-.147 3.61.95 1.42 1.564 3.082 3.03 3.38 5.25.352 2.636.547 5.297.697 7.956.206 3.66.438 7.33.398 10.99-.02 2.083 1.812 3.06 2.266 4.787.202.75.658 1.5.615 2.225-.597 9.948-2.247 19.74-4.816 29.354-2.92 10.924-6.033 21.795-9.042 32.695-.26.947-.362 1.937-.16 3.11l2.998-3.167-.027-.03-.004.005zM396.6 334.8c-.718.628-1.622 1.133-2.114 1.903-.88 1.377-1.544 2.9-2.24 4.392-.184.394-.15.89-.213 1.34l.527.19c1.398-2.59 3.09-5.017 3.983-7.89l1.912-1.99c-.215-.14-.425-.286-.637-.428L396.6 334.8zm266.403 46.917c1.41-.992 2.856-1.94 4.225-2.99 2.835-2.172 5.624-4.405 8.445-6.598.086-.067.32.06.938.197-9.002 8.56-18.323 16.353-27.675 24.114-9.347 7.757-18.578 15.643-27.922 23.396-9.373 7.778-18.938 15.325-28.83 23.486 1.497.6 2.35 1.073 3.26 1.287 4.023.942 8.067 1.787 12.094 2.717 3.113.72 6.182 1.65 9.32 2.235 4.964.925 9.953 1.73 14.955 2.427 4 .553 8.033 1.19 12.056 1.2 4.283.014 8.61.413 12.88-.774 3.343-.93 6.794-1.746 10.236-1.968 4.578-.295 8.77-1.658 12.932-3.336.764-.31 1.562-.53 2.347-.774 3.757-1.173 7.733-1.803 10.87-4.5.39-.337 1.003-.417 1.515-.612 1.448-.55 3.087-.836 4.315-1.703 4.048-2.846 7.986-5.855 11.882-8.907 1.606-1.255 3.138-2.502 5.156-3.088.824-.242 1.623-.85 2.233-1.482 1.588-1.646 2.84-3.7 4.633-5.047 4.117-3.09 7.046-7.22 10.374-11 .376-.423.52-1.046.77-1.58l-.327-.262-2.247 1.655c1.596-2.577 3.386-4.882 5.047-7.277 1.408-2.032 2.82-4.09 3.943-6.28.96-1.865 1.298-4.05 2.29-5.89 2.152-3.995 2.808-8.34 3.334-12.716.925-7.635-.385-15.108-2.48-22.363-2.88-9.98-6.244-19.827-9.503-29.698-.65-1.962-1.762-3.772-2.727-5.783-.875.372-1.507.526-2.002.87-2.1 1.457-4.197 2.928-6.23 4.473-3.43 2.602-6.79 5.3-10.226 7.898-3.952 2.993-8.05 5.807-11.908 8.91-4.774 3.842-9.388 7.886-14.04 11.875-2.784 2.388-5.512 4.837-8.274 7.255-.416.362-.858.688-1.29 1.023-2.094 1.624-4.266 3.158-6.273 4.882-2.58 2.213-5.036 4.568-7.522 6.885-.343.316-.554.77-1.09 1.537 1.93-.236 3.103-1.032 3.912-2.062 2.946-3.75 7.177-5.943 10.755-8.907 2.39-1.978 4.703-4.026 7.03-6.07 2.21-1.937 4.386-3.928 6.732-5.695 2.85-2.15 5.876-4.06 8.792-6.128 1.02-.728 1.93-1.612 3.066-2.57-.262 2.808-.51 3.486-2.107 4.787-2.846 2.324-5.767 4.554-8.62 6.868-3.553 2.884-7.066 5.82-10.606 8.727-1.77 1.452-3.608 2.825-5.32 4.34-3.855 3.408-7.69 6.843-11.445 10.36-.735.687-1.078 1.797-1.61 2.703-.686.115-1.576-.05-1.592 1.334l1.535-1.38-.005-.005zm-272.115-6.35l.617.16c1.073-1.22 2.276-2.353 3.196-3.68 4.614-6.647 9.224-13.296 13.683-20.047 3.67-5.556 6.238-11.673 8.243-18 .684-2.16.98-4.5 1.104-6.777.192-3.476-2.092-5.096-5.337-4.013-.52.175-1.057.362-1.516.654-3.265 2.09-6.208 4.51-8.672 7.563-4.5 5.58-6.893 12.105-8.784 18.854-.76 2.728-1.143 5.566-1.58 8.374-.48 3.08-.987 6.17-1.18 9.27-.154 2.533.136 5.097.227 7.645v-.004zm99.523-150.514c-.234-.02-.47-.04-.705-.064-.316.54-.715 1.05-.935 1.628-1.44 3.76-3.022 7.48-4.215 11.318-1.85 5.96-3.607 11.96-5.062 18.03-1.37 5.712-2.3 11.53-3.433 17.3-.423 2.163-.886 4.322-1.31 6.487-.457 2.316-.917 4.63-1.315 6.954-.12.697-.07 1.425-.062 2.137.006.628.165 1.27.08 1.877-.93 6.64-1.917 13.273-2.836 19.915-.214 1.556-.24 3.14-.355 4.707.215.027.426.058.64.086l5.792-29.562.585.113c-.385 2.15-.846 4.294-1.128 6.46-.273 2.092-.32 4.21-.536 6.31-.215 2.068-.518 4.127-.78 6.19.795-.442 1.146-.973 1.33-1.555 1.19-3.77 2.404-7.526 3.495-11.324 1.396-4.856 2.836-9.71 3.974-14.632 1.43-6.174 2.634-12.404 3.83-18.63.69-3.602 1.187-7.237 1.74-10.863.167-1.09.24-2.197.345-3.295.446-4.733.976-9.467 1.29-14.21.117-1.774-.27-3.58-.427-5.377h-.002zm51.656 128.073c1.164.81 1.87.067 2.63-.396 2.42-1.48 4.84-2.955 7.248-4.457 3.12-1.944 6.244-3.876 9.32-5.888 1.804-1.176 1.863-1.65 1.054-3.656-2.336-5.794-4.653-11.593-6.996-17.383-.15-.372-.452-.685-.93-1.387-4.335 9.743-8.506 19.103-12.657 28.47-.165.375-.194.81-.406 1.75l2.22-1.595c.145.1.292.2.436.303l-1.92 4.238zm63.805-69.508c.35-.476.73-.785.84-1.174 1.567-5.618 3.13-11.24 4.62-16.882.58-2.186.55-4.508 1.685-6.595.456-.835.413-1.954.532-2.95.14-1.17.255-2.347.29-3.527.043-1.55.098-3.11-.046-4.653-.082-.84-.275-1.864-1.745-2.074-.41.693-.938 1.424-1.308 2.226-.922 1.997-1.877 3.99-2.624 6.055-.71 1.97-1.212 4.02-1.723 6.058-.1.402.17.894.355 1.75.854-1.14 1.43-1.907 2.14-2.85 1.052 1.648.577 3.103.12 4.417-1.903 5.503-2.446 11.29-3.667 16.934-.228 1.05-.435 2.134.534 3.263zm94.155 7.043l.68.368c.658-.908 1.423-1.76 1.952-2.735 1.442-2.66 2.816-5.36 4.168-8.07 1.81-3.617 3.72-7.195 5.314-10.905 1.625-3.776 2.968-7.677 4.344-11.554 1.076-3.02 2.03-6.084 3.008-9.138.242-.75.48-1.55-.313-2.333-1.297 2.473-2.643 4.723-3.676 7.107-1.054 2.434-1.698 5.042-2.708 7.496-2.02 4.917-3.373 10.138-6.497 14.563-.205.287-.315.666-.39 1.023-.934 4.355-3.31 8.09-5.163 12.05-.312.675-.483 1.415-.725 2.127h.003zM472.73 270.607h.64c1.085-4.35 2.22-8.687 3.24-13.048 1.78-7.598 3.57-15.194 6.696-22.38 1.65-3.78 3.514-7.468 5.24-11.216.47-1.02.792-2.103 1.18-3.157l-.66-.372c-.587.745-1.22 1.457-1.764 2.233-1.626 2.333-2.805 4.875-3.74 7.577-1.856 5.357-4.015 10.613-5.808 15.99-.976 2.938-1.488 6.036-2.163 9.073-.975 4.38-1.926 8.768-2.838 13.162-.143.685-.02 1.425-.02 2.138zm139.56-30.367l-.806-.514c-1.83 1.157-3.184 2.784-4.23 4.712-1.27 2.333-2.45 4.723-3.84 6.987-.994 1.623-1.388 3.315-1.24 5.234 1.343-2.128 2.493-4.35 3.682-6.55.43-.798.89-1.59 1.432-2.316 1.314-1.757 2.736-3.44 4.007-5.228.48-.67.67-1.542.992-2.325h.002zm-142.71 45.475c-1.656 1.438-2.223 3.98-1.756 6.705 1.98-1.912 2.135-4.233 1.756-6.705zm263.256-10.178l.616-.062c-.054-1.136-.06-2.276-.174-3.406-.118-1.13.238-2.506-1.26-3.27-.475 2.23-.162 4.56.816 6.738h.002zm-87.61 120.473c2.303-.66 4.018-2.124 5.416-4.017-2.423.502-4.107 2.006-5.417 4.017zm127.647-102.76l-.354-.545c-.726.19-1.523.26-2.152.625-.29.167-.25.906-.36 1.386.493.11 1.172.476 1.44.28.585-.434.964-1.147 1.426-1.744v-.003zm-305.505 2.24l-.67-.063-.49 3.567c1.535-1.28 1.715-2.312 1.16-3.503zm3.402 21.663h-.56l-.09 1.98.27.02c.124-.668.252-1.333.378-1.998l.002-.002zm206.835-24.003l.402.016v-1.234l-.34-.01c-.022.412-.04.822-.064 1.23l.002-.002zM495.69 316.038l.48.08c.06-.402.12-.805.183-1.207-.147-.025-.3-.047-.448-.072-.066.398-.14.798-.214 1.198v.002zm248.054-72.19c.094-.422.192-.846.286-1.27l.41.067-.102 1.294-.593-.095v.002zm-23.33 37.267c-.263.23-.434.372-.602.52-.104-.2-.254-.392-.288-.6-.016-.104.236-.36.29-.344.19.068.345.23.598.424h.002zm-218.602 22.98v-2.288l.53.068c-.19.72-.382 1.434-.563 2.165l.034.054-.002.002zM677.61 293.15l.06-1.228.342.01v1.233l-.402-.014zM717.93 332.486c1.422-.79 2.36-1.32 3.474-1.94-.123 2.507-.87 3.008-3.473 1.943v-.004z"/></g><path fill="#fff" d="M191.608 398.735c.872.255 1.897.037 2.736.35 3.51 1.31 7.12 1.343 10.804 1.427 2.258.05 4.312.2 6.508-.715 2.83-1.185 3.822-.527 4.396 2.632 1.028 5.645 1.92 11.314 2.787 16.987.79 5.17 1.293 10.39 2.238 15.53 2.26 12.29 4.694 24.548 7.084 36.815.96 4.92 1.985 9.83 2.997 14.74 1.3 6.32 2.61 12.638 3.935 18.955 1.03 4.9 2.112 9.793 3.125 14.7.95 4.605 1.774 9.236 2.772 13.83 1.13 5.202 2.583 10.345 3.513 15.577.464 2.612.987 5.123 2.18 7.487.248.487.558.966.783 1.457 3.128.12 6.256.22 9.387.3.12-.43.274-.86.474-1.293 1.128-2.44 3.287-3.503 4.897-4.452 0-3.89.31-7.39-.08-10.81-.454-3.937-1.538-7.8-2.326-11.7-.14-.7-.203-1.42-.27-2.134-.31-3.265-.35-6.574-.96-9.78-1.49-7.854-3.25-15.657-4.883-23.483-.5-2.407-1.006-4.817-1.392-7.24-.94-5.865-1.824-11.743-2.7-17.618-.786-5.252-1.57-10.507-2.254-15.77-.116-.886.264-1.835.406-2.705 1.427.198 2.665.775 3.334.385 1.613-.948 3.15-.456 4.765-.492 3.953-.09 7.98.118 11.554-2.23.877-.577 2.178-.913 3.21-.778 2.326.303 4.622.898 6.896 1.502 2.37.625 4.683 1.458 7.05 2.087 3.072.817 6.17 1.545 9.265 2.272 6.983 1.645 13.924 3.492 20.965 4.832 7.65 1.454 15.377 2.5 23.092 3.578 9.95 1.395 19.918 2.666 29.887 3.932 4.264.542 8.55.945 12.83 1.39 7.032.73 14.05 1.73 21.1 2.053 4.665.215 9.428.606 14.087-.567 1.39-.35 2.787-.604 3.685-1.794-.104-1.73-1.473-2.105-2.56-2.424-5.6-1.626-11.175-3.443-16.883-4.575-7.737-1.535-15.586-2.52-23.392-3.712-7.604-1.157-15.21-2.272-22.817-3.406-9.325-1.384-18.703-2.405-27.89-4.666-8.754-2.158-17.594-3.98-26.34-6.164-6.167-1.54-12.252-3.406-18.348-5.217-.96-.285-1.78-1.026-2.836-1.66.72-.933 1.1-1.533 1.58-2.033 3.62-3.782 7.328-7.483 10.868-11.336 1.783-1.937 3.304-4.12 4.888-6.234 1.15-1.537 2.03-3.32 3.347-4.68 2.423-2.495 5.194-4.663 7.604-7.175 1.368-1.426 2.146-3.414 3.476-4.89 3.976-4.413 8.086-8.713 12.16-13.04 7.596-8.063 15.194-16.118 22.807-24.16 3.666-3.876 7.34-7.738 11.083-11.54 1.157-1.173 2.765-2.152 2.673-3.935-.127-2.427-.604-4.848-1.135-7.228-.1-.45-1.125-.737-1.76-1.023-.932-.415-2.216-.5-2.777-1.193-1.13-1.403-2.77-1.55-4.146-2.318-2.457-1.368-5.93-.738-7.52-3.876-.2-.396-1.108-.432-1.688-.637-.572-.202-1.188-.328-1.71-.622-3.227-1.815-3.71-1.646-6.108 1.175-4.917 5.782-9.846 11.556-14.925 17.19-5.976 6.628-12.072 13.148-18.2 19.64-3.52 3.727-7.147 7.355-10.826 10.928-5.59 5.433-11.297 10.748-16.896 16.174-7.067 6.843-14.067 13.755-21.118 20.61-.443.433-1.094.647-1.784 1.04-.955-2.896-.125-5.793-1.488-8.29-.127-.236-.054-.617.01-.912.423-1.93.964-3.84 1.28-5.785.38-2.314.87-4.67.793-6.99-.196-5.838-.472-11.688-1.123-17.485-.472-4.197 1.156-7.23 3.72-10.272 4.95-5.884 9.647-11.975 12.997-18.98.745-1.557 1.704-3.134 2.935-4.306 3.757-3.576 6.76-7.604 9.04-12.29 1.367-2.813 3.68-5.16 5.124-7.944 2.534-4.888 5.185-9.735 6.673-15.12.898-3.252 2.462-6.322 3.342-9.578 1.145-4.242 1.752-8.63 2.89-12.877 1.056-3.94.582-7.956 1.02-11.916.096-.876-.266-1.802-.438-2.83-2.75-.68-4.653-2.294-5.76-4.928-.327-.778-1.122-1.478-1.873-1.934-1.837-1.117-3.704-2.23-5.68-3.055-2.917-1.22-5.956-2.63-9.18-1.738-2.543.703-4.878.72-7.208-.393-.607 1.176-.903 2.517-1.737 3.22-3.05 2.576-6.31 4.905-9.428 7.403-1.428 1.147-2.937 2.306-4.027 3.75-4.932 6.53-9.726 13.166-14.566 19.768-.118.158-.162.373-.242.56-1.08 2.432-2.138 4.877-3.255 7.292-.335.73-.684 1.67-1.303 2.008-1.375.753-1.71 1.99-2.012 3.274-1.352 5.788-2.672 11.586-3.97 17.384-.2.9-.348 1.843-.294 2.75.157 2.606-.212 5.09-1.337 7.455-.12.25-.228.503-.345.768-.67-.366-1.265-.688-2.014-1.095-.49 1.304-.908 2.41-1.368 3.632-.547-.13-.925-.21-1.3-.306-2.326-.6-2.495-.434-3.112 1.908-.304 1.146-.974 2.192-1.395 3.316-.35.938-.787 1.912-.822 2.883-.15 4.098-.407 8.215-.15 12.296.186 2.934-.656 5.24-2.547 7.278-2.165 2.325-4.35 4.633-6.617 6.853-3.366 3.302-6.732 6.61-10.26 9.74-1.986 1.756-4.198 3.318-6.49 4.657-1.648.965-3.25 2.768-5.585 1.46-.178-.098-.63.078-.828.26-1.378 1.293-2.877 2.52-3.19 4.62 6.436.353 6.41.386 11.416 4.855.787.707 1.958 1.05 3.006 1.363l-.006.002zm68.793-127.6l.577.536c-2.056 1.99-4.108 3.984-6.163 5.977 1.124-2.883 3.38-4.676 5.587-6.513zm-2.9 25.62l.688.34-3.46 7.214-.485-.23c1.087-2.44 2.17-4.885 3.256-7.326zM910.875 221.31c-.14-.094-.278-.192-.418-.29.134-.126.305-.38.39-.354.2.06.36.255.536.396l-.51.247h.002zM689.477 175.86c-.37-.474-.74-.95-1.213-1.564.375-.058.54-.084.91-.144-.312-.896-.615-1.765-.928-2.628-.24-.676-.65-1.328-.718-2.018-.188-1.826-.938-3.46-1.515-5.16-.312-.91-.426-1.876-.067-2.818.368-.965.44-1.847-.385-2.645-.183-.174-.375-.595-.287-.753.678-1.247-.354-2.347-.244-3.563.11-1.22-.13-2.47-.23-3.707-.04-.52-.18-1.02.34-1.448.2-.16.27-.598.242-.896-.067-.805-.22-1.606-.338-2.43-1.475-.662-2.62.234-3.827.69-.617.236-1.183.605-1.783.896-.898.437-1.77.974-2.712 1.265-3.34 1.028-6.658 1.307-9.835-.606-.733-.44-1.558-.736-2.264-1.22-1.215-.83-2.362-1.77-3.556-2.637-.5-.362-1.04-.676-1.586-.965-1.434-.762-1.84-1.947-1.263-3.473.674-1.792 1.89-3.21 3.12-4.61 1.073-1.216 2.23-2.36 3.386-3.5 1.43-1.407 2.877-2.8 4.348-4.163.946-.875 1.985-1.65 2.916-2.537 1.135-1.083 2.18-2.256 3.3-3.356.4-.398.922-.674 1.34-1.06.175-.168.22-.48.322-.725-.28-.103-.598-.35-.84-.288-1.75.442-3.486.948-5.337 1.465l.594.95c-1.086.198-2.085.475-3.098.547-1.48.104-2.966.125-4.445.066-2.292-.09-4.215-1.153-5.913-2.59-1.022-.866-1.922-1.825-3.28-2.243-.502-.154-.983-.77-1.233-1.29-.576-1.21-1.4-2.127-2.515-2.867-2.66-1.773-3.474-4.577-2.67-7.654.806-3.084 2.4-5.746 4.166-8.274 1.04-1.49 2.57-2.745 4.106-3.758 1.596-1.052 3.098-2.21 4.633-3.34 2.224-1.64 4.55-3.142 6.834-4.702.776-.533 1.534-1.1 2.346-1.583 3.473-2.07 6.97-4.11 10.45-6.174.78-.46 1.825-.817 2.188-1.515.36-.697.02-1.76-.02-2.665-.015-.335-.058-.67-.058-1.003.003-.188.01-.5.107-.542 1.294-.554.832-1.626.783-2.57-.067-1.195-.13-2.39-.233-3.582-.08-.95-.118-1.92-.36-2.835-.516-1.958-.535-3.913-.436-5.92.066-1.353-.23-2.727-.357-4.05 1.1-.786 1.502-.836 2.35-.224 1.695 1.223 3.426 2.403 5.03 3.738.62.52 1.002 1.38 1.358 2.148.277.595.396 1.282.496 1.94.536 3.497 1.043 7 1.562 10.5.032.236.05.476.094.71.185.933.438 1.148 1.367 1.02.563-.08 1.106-.35 1.67-.393 1.478-.118 2.97-.324 4.432-.194 1.944.174 3.896.52 5.79 1 1.67.425 2.998 1.412 3.572 3.193.28.86.75 1.66 1.046 2.518.778 2.256.677 3.46-.957 4.91-.426.38-.728.89-1.126 1.3-.398.406-.85.762-1.265 1.128-.966-.35-1.87-.53-2.487-1.483-.402-.623-1.2-1.104-1.924-1.37-.632-.23-1.416-.152-2.11-.06-.944.12-1.908.28-2.79.613-1.06.398-2.093.92-3.03 1.548-.33.22-.497.913-.483 1.382.05 1.76.2 3.523.32 5.284.14 2.005.282 4.01.44 6.013.032.415.125.83.227 1.47.966-.33 1.824-.56 2.636-.906 1.313-.563 2.574-1.278 3.908-1.792 1.046-.402 2.17-.792 3.272-.845 1.23-.053 2.087.872 2.678 1.886.765 1.314 1.44 2.682 2.122 4.042.16.325.217.71.274 1.08.107.68.185 1.364.303 2.26-.805.375-1.75.812-2.772 1.287l-.517-.446-.32 1.146c-.516-.228-.983-.174-1.238.438-.07.167-.155.43-.287.465-1.756.492-2.718 2.057-4.097 3.06-1.5 1.093-2.826 2.427-4.237 3.654-.654.572-1.294 1.144-1.335 2.114-.008.174-.103.452-.23.5-1.016.392-.853 1.255-.85 2.044.002 2.143-.3 4.287.008 6.43.066.446.2.884.34 1.474 1.525-.558 2.74-1.294 3.963-2.012 2.473-1.444 4.958-2.872 7.423-4.33 2.09-1.246 4.162-2.532 6.253-3.783 1.314-.785 2.655-1.523 3.97-2.31 1.428-.853 2.812-1.793 4.27-2.59 1.29-.71 2.616-1.43 4.018-1.845.953-.282 2.06-.054 3.252-.054-1.153 3.347-3.035 5.86-6.048 7.567.693 1.153.077 1.716-.792 2.235-1.756 1.046-3.497 2.125-5.22 3.232-.337.218-.703.583-.807.95-.31 1.133-1.273 1.444-2.14 1.926-1.815 1.01-3.822 1.672-5.3 3.275-.61.66-1.557 1.012-2.35 1.502-.202.125-.454.2-.605.37-1.044 1.166-2.444 1.803-3.747 2.6-1.787 1.1-3.54 2.262-5.302 3.404-.694.447-1.032 1.032-.965 1.923.134 1.86.172 3.726.24 5.588.01.278-.025.557-.182.848-.536-.958-.24-2.03-.38-3.037-.14-1.01-.254-2.024-.38-3.04h-.36c-.027.677-.09 1.355-.074 2.028.066 2.82.1 5.646.256 8.462.38 6.732.514 13.485 1.834 20.134.41 2.062 1.072 3.926 2.708 5.404.668.604 1 1.583 1.57 2.532-.413.075-.677.197-.91.153-1.495-.278-3.062-.17-4.484-.87-.327-.16-.762-.246-1.115-.187-1.186.2-2.03-.362-2.807-1.117-.48-.468-.926-.973-1.422-1.42-.083-.076-.36.062-.55.1l.048-.04.01.01zm-27.434-63.348c1.77.233 3.345.048 4.845-.375 2.984-.84 5.954-1.743 8.882-2.77 2.116-.743 4.148-1.72 6.213-2.606.306-.13.56-.365.858-.51.652-.32.814-.83.775-1.53-.16-2.67-.255-5.347-.402-8.02-.032-.56-.163-1.115-.248-1.67-.526-.113-.952.433-1.4-.047-.13-.137-.588-.094-.814.02-.88.454-1.756.932-2.583 1.476-.595.39-1.087.868-1.193 1.69-.054.392-.478.943-.843 1.05-2.01.58-3.352 2.013-4.732 3.432-.27.275-.703.39-1.064.577-.007.093-.03.19-.02.28.15 1.325.018 1.424-1.328 1.26-.32-.035-.765.108-.993.328-1.365 1.325-2.7 2.682-4.007 4.063-.853.9-1.556 1.91-1.938 3.35h-.005zm22.495 16.677c-.668-.222-1.066-.438-1.473-.46-.32-.015-.902.155-.944.336-.234 1.06-1.15 1.443-1.818 2.095-2.487 2.432-4.935 4.905-7.362 7.397-.433.445-.697 1.054-1.112 1.703 1.126.26 1.955-.016 2.708-.36 2.82-1.286 5.633-2.587 8.39-3.995.705-.362 1.56-.888 1.597-1.867.06-1.61.014-3.22.014-4.848zm4.9 46.708c.386.335.77.675 1.154 1.01-.664-.074-.985-.475-1.117-1.048l-.037.036v.002zm-1.938-4l-.24-.698.203-.063c.067.244.134.49.198.737-.053.005-.106.014-.16.02v.003zM681.99 58.06l-.175-.65c.07-.018.19-.06.197-.048.092.196.168.4.252.6l-.274.098z"/></svg>